<svg id="Component_1_1" data-name="Component 1 – 1" xmlns="http://www.w3.org/2000/svg" width="180" height="208" viewBox="0 0 180 208">
  <path id="Path_1" data-name="Path 1" d="M94,72A36,36,0,1,0,58,36,36.04,36.04,0,0,0,94,72ZM94,8A28,28,0,1,1,66,36,28.032,28.032,0,0,1,94,8Z" transform="translate(-14)" fill="#f8f8f8"/>
  <path id="Path_2" data-name="Path 2" d="M162,48a32,32,0,1,0,32,32A32.037,32.037,0,0,0,162,48Zm0,56a24,24,0,1,1,24-24A24.027,24.027,0,0,1,162,104Z" transform="translate(-14)" fill="#f8f8f8"/>
  <path id="Path_3" data-name="Path 3" d="M146,124a28,28,0,1,0,28,28A28.032,28.032,0,0,0,146,124Zm0,48a20,20,0,1,1,20-20A20.024,20.024,0,0,1,146,172Z" transform="translate(-14)" fill="#f8f8f8"/>
  <path id="Path_4" data-name="Path 4" d="M90,160a24,24,0,1,0,24,24A24.027,24.027,0,0,0,90,160Zm0,40a16,16,0,1,1,16-16A16.017,16.017,0,0,1,90,200Z" transform="translate(-14)" fill="#f8f8f8"/>
  <path id="Path_5" data-name="Path 5" d="M34,128a20,20,0,1,0,20,20A20.024,20.024,0,0,0,34,128Zm0,32a12,12,0,1,1,12-12A12.013,12.013,0,0,1,34,160Z" transform="translate(-14)" fill="#f8f8f8"/>
  <path id="Path_6" data-name="Path 6" d="M30,100A16,16,0,1,0,14,84,16.017,16.017,0,0,0,30,100Zm0-24a8,8,0,1,1-8,8A8.009,8.009,0,0,1,30,76Z" transform="translate(-14)" fill="#f8f8f8"/>
</svg>
